<svg viewBox="0 0 512 512" xmlns="http://www.w3.org/2000/svg" fill="#a72e6f">
  <path d="m425.615 286.474c0-32.089-22.834-58.945-53.106-65.175 1.016-4.615 1.568-9.402 1.568-14.318 0-36.689-29.849-66.539-66.539-66.539-13.488 0-26.043 4.045-36.539 10.97v-84.873c.001-20.148 16.392-36.539 36.54-36.539 8.284 0 15-6.716 15-15s-6.716-15-15-15c-24.904 0-46.642 13.761-58.048 34.07-1.96-2.558-4.105-5.036-6.462-7.393-27.547-27.548-71.274-26.712-73.122-26.665-7.973.211-14.386 6.625-14.597 14.597-.049 1.848-.882 45.574 26.664 73.121 18.195 18.196 43.444 24.006 59.026 25.842v37.84c-10.496-6.925-23.051-10.97-36.539-10.97-36.689 0-66.539 29.849-66.539 66.539 0 4.916.552 9.703 1.568 14.318-30.273 6.23-53.106 33.086-53.106 65.175s22.834 58.945 53.106 65.175c-1.016 4.615-1.568 9.402-1.568 14.318 0 32.089 22.834 58.945 53.107 65.175-1.016 4.615-1.568 9.402-1.568 14.318 0 36.691 29.85 66.54 66.539 66.54s66.539-29.849 66.539-66.539c0-4.916-.552-9.703-1.568-14.318 30.273-6.23 53.107-33.086 53.107-65.175 0-4.916-.552-9.703-1.568-14.318 30.271-6.231 53.105-33.086 53.105-65.176zm-81.538 79.494c0 20.147-16.391 36.539-36.539 36.539s-36.538-16.392-36.538-36.539c0-5.575 1.26-10.86 3.503-15.592 12.723-3.69 23.883-11.077 32.238-20.926.266-.006.531-.02.798-.02s.532.015.798.02c8.355 9.849 19.515 17.235 32.238 20.926 2.242 4.732 3.502 10.017 3.502 15.592zm-51.538 79.493c0 20.148-16.392 36.539-36.539 36.539s-36.539-16.391-36.539-36.539c0-5.575 1.26-10.86 3.502-15.592 12.723-3.69 23.883-11.077 32.238-20.926.266-.006.53-.02.798-.02s.532.015.798.02c8.355 9.849 19.515 17.236 32.238 20.926 2.244 4.732 3.504 10.017 3.504 15.592zm-88.078-42.955c-20.147 0-36.539-16.391-36.539-36.539 0-5.575 1.26-10.86 3.503-15.592 12.723-3.69 23.883-11.077 32.238-20.926.266-.006.531-.02.798-.02s.532.015.798.02c8.355 9.849 19.515 17.235 32.238 20.926 2.243 4.732 3.503 10.017 3.503 15.592 0 20.148-16.391 36.539-36.539 36.539zm-51.538-79.493c-20.147 0-36.538-16.391-36.538-36.539 0-20.147 16.391-36.538 36.538-36.538s36.539 16.391 36.539 36.538c-.001 20.148-16.392 36.539-36.539 36.539zm15-116.032c0-20.147 16.391-36.539 36.539-36.539s36.538 16.391 36.538 36.539c0 5.575-1.26 10.86-3.503 15.592-12.723 3.69-23.883 11.077-32.238 20.926-.266.006-.531.02-.798.02s-.532-.015-.798-.02c-8.355-9.849-19.515-17.235-32.238-20.926-2.242-4.732-3.502-10.017-3.502-15.592zm176.154 0c0 5.575-1.26 10.86-3.503 15.592-12.723 3.69-23.883 11.077-32.238 20.926-.266.006-.531.02-.798.02s-.532-.015-.798-.02c-8.355-9.849-19.515-17.235-32.238-20.926-2.243-4.732-3.503-10.017-3.503-15.592 0-20.147 16.391-36.539 36.539-36.539s36.539 16.391 36.539 36.539zm-88.077 116.032c-20.147 0-36.539-16.391-36.539-36.539 0-20.147 16.391-36.538 36.539-36.538s36.539 16.391 36.539 36.538c0 20.148-16.392 36.539-36.539 36.539zm66.539-36.539c0-20.147 16.391-36.538 36.539-36.538 20.147 0 36.538 16.391 36.538 36.538s-16.391 36.539-36.538 36.539c-20.148 0-36.539-16.391-36.539-36.539zm-119.351-219.956c-9.942-9.942-14.364-24.058-16.327-34.937 10.898 1.972 25.043 6.396 34.956 16.309 9.949 9.949 14.369 24.075 16.33 34.958-10.89-1.963-25.013-6.384-34.959-16.33z"/>
</svg>
