<svg viewBox="0 -75 512 512" xmlns="http://www.w3.org/2000/svg" fill="#a72e6f">
  <path d="m482 299c0 18.195312-14.894531 33-33.199219 33-14.726562 0-27.238281-9.582031-31.570312-22.800781l53.289062-104.199219h-71.25l-30-60h-40l-30-60h-65.269531v-85h-30v85h-30v-60h-30v60h-98v242.21875c-9.585938-5.796875-16-16.277344-16-28.21875h-30c0 34.738281 28.351562 63 63.199219 63 19.292969 0 36.597656-8.664062 48.199219-22.292969 11.605468 13.628907 28.90625 22.292969 48.203124 22.292969 19.292969 0 36.597657-8.664062 48.199219-22.292969 11.601563 13.628907 28.90625 22.292969 48.199219 22.292969s36.597656-8.664062 48.199219-22.292969c11.601562 13.628907 28.90625 22.292969 48.199219 22.292969 19.296874 0 36.597656-8.664062 48.199218-22.292969 11.605469 13.628907 28.910156 22.292969 48.203125 22.292969 34.847657 0 63.199219-28.261719 63.199219-63zm-406-184h204.730469l15 30h-219.730469zm0 60h274.730469l15 30h-289.730469zm276.398438 157c-18.304688 0-33.199219-14.804688-33.199219-33h-30c0 18.195312-14.894531 33-33.199219 33s-33.199219-14.804688-33.199219-33h-30c0 18.195312-14.894531 33-33.199219 33-18.308593 0-33.203124-14.804688-33.203124-33h-30c0 13.6875-8.429688 25.457031-20.398438 30.445312v-94.445312h345.480469l-35.878907 64c0 18.195312-14.894531 33-33.203124 33zm0 0"/>
</svg>
